<?xml version="1.0" standalone="no"?><!DOCTYPE svg PUBLIC "-//W3C//DTD SVG 1.1//EN" "http://www.w3.org/Graphics/SVG/1.1/DTD/svg11.dtd"><svg t="1574314089144" class="icon" viewBox="0 0 1024 1024" version="1.1" xmlns="http://www.w3.org/2000/svg" p-id="3482" xmlns:xlink="http://www.w3.org/1999/xlink" width="200" height="200"><defs><style type="text/css"></style></defs><path d="M127.99328 1023.946243a42.664427 42.664427 0 1 1 0-85.328854h170.657707a42.664427 42.664427 0 1 1 0 85.328854h-170.657707z m85.328854-563.170434a42.664427 42.664427 0 0 1 0-85.328853h85.328853a42.664427 42.664427 0 0 1 0 85.328853h-85.328853z m0 187.723478a42.664427 42.664427 0 0 1 0-85.328853h85.328853a42.664427 42.664427 0 0 1 0 85.328853h-85.328853z m0 187.723478a42.664427 42.664427 0 0 1 0-85.328854h170.657707a42.664427 42.664427 0 0 1 0 85.328854h-170.657707z m0-563.170434a42.664427 42.664427 0 0 1 0-85.328853h511.973121a42.664427 42.664427 0 0 1 0 85.328853h-511.973121zM853.288536 127.99328a42.664427 42.664427 0 1 1 85.328853 0v170.657707a42.664427 42.664427 0 1 1-85.328853 0v-170.657707z m-72.870841 712.837243a42.664427 42.664427 0 1 1 60.412828-60.412828l170.657707 170.657707a42.664427 42.664427 0 0 1-60.412828 60.412828l-170.657707-170.657707zM682.630829 767.959682a170.657707 170.657707 0 1 0 0-341.315414 170.657707 170.657707 0 0 0 0 341.315414z m0 85.328854a255.986561 255.986561 0 1 1 0-511.973122 255.986561 255.986561 0 0 1 0 511.973122z m255.98656-680.070963V85.328854a85.328854 85.328854 0 0 0-85.328853-85.328854H85.328854a85.328854 85.328854 0 0 0-85.328854 85.328854v853.288535a85.328854 85.328854 0 0 0 85.328854 85.328854h82.257014v-85.328854H85.328854V85.328854h767.959682v87.888719h85.328853z m0 0V85.328854a85.328854 85.328854 0 0 0-85.328853-85.328854H85.328854a85.328854 85.328854 0 0 0-85.328854 85.328854v853.288535a85.328854 85.328854 0 0 0 85.328854 85.328854h82.257014v-85.328854H85.328854V85.328854h767.959682v87.888719h85.328853z" p-id="3483"></path></svg>