<?xml version="1.0" encoding="utf-8"?>
<!-- Generator: Adobe Illustrator 22.0.0, SVG Export Plug-In . SVG Version: 6.00 Build 0)  -->
<svg version="1.1" id="图层_1" xmlns="http://www.w3.org/2000/svg" xmlns:xlink="http://www.w3.org/1999/xlink" x="0px" y="0px"
	 viewBox="0 0 500 500" style="enable-background:new 0 0 500 500;" xml:space="preserve">
<path d="M465.6,110.4C396.4,70.8,320.1,42.6,250.1,3.7C180,43,103.1,70.4,34.2,111.2c-10.7,151.9,75.7,308,216.2,385
	C390.2,418.8,477.4,262.7,465.6,110.4L465.6,110.4z M396.4,176.7l-150.5,148c-3.6,3.5-8.3,5.5-13.4,5.5c-5,0-9.7-1.9-13.3-5.4
	l-84.1-82.1c-3.6-3.6-5.7-8.3-5.7-13.4c-0.1-5.1,1.9-9.9,5.5-13.5c3.6-3.7,8.4-5.7,13.6-5.7c5,0,9.7,1.9,13.3,5.4l70.7,69
	l137.2-134.8c3.6-3.5,8.3-5.5,13.3-5.5c5.2,0,10,2,13.6,5.7C404,157.3,403.8,169.3,396.4,176.7z"/>
</svg>
