<svg xmlns="http://www.w3.org/2000/svg" viewBox="0 0 44.14 40.04"><title>资源 8</title><g id="图层_2" data-name="图层 2"><g id="图层_1-2" data-name="图层 1"><path d="M42.14,36H2a2,2,0,0,0,0,4H42.14a2,2,0,0,0,0-4Z"/><path d="M7,31a1.53,1.53,0,0,0,.3,0l.11,0a1.37,1.37,0,0,0,.34,0l7.17-2a1.45,1.45,0,0,0,.69-.43l.08-.05L36.37,7.81a1.5,1.5,0,0,0,0-2.13l-.08,0a2,2,0,0,0-.12-.19l-5-5A1.47,1.47,0,0,0,30,0a1.51,1.51,0,0,0-1.12.43l-21,21s-.05.09-.09.14a1.5,1.5,0,0,0-.64.95L5.83,29.28A1.49,1.49,0,0,0,7,31Zm3-7.47,20-20,3.17,3.17L13.75,26.18l-4.5,1.28Z"/></g></g></svg>