<?xml version="1.0" encoding="utf-8"?>
<!-- Generator: Adobe Illustrator 22.0.0, SVG Export Plug-In . SVG Version: 6.00 Build 0)  -->
<svg version="1.1" id="图层_1" xmlns="http://www.w3.org/2000/svg" xmlns:xlink="http://www.w3.org/1999/xlink" x="0px" y="0px"
	 viewBox="0 0 500 500" style="enable-background:new 0 0 500 500;" xml:space="preserve">
<path d="M141.2,106.6C170.9,81.9,205.5,72,245.1,72c98.9,0,178,79.1,178,178s-79.1,178-178,178c-74.2,0-143.4-44.5-168.1-113.7
	c-4.9-19.8-24.7-24.7-44.5-19.8c-9.9,4.9-14.8,9.9-19.8,19.8c-4.9,4.9-4.9,14.8,0,24.7c34.6,93.9,128.5,158.2,232.4,158.2
	c133.5,0,247.2-108.8,247.2-247.2c0-133.5-108.8-247.2-247.2-247.2c-54.4,0-103.8,19.8-148.3,49.4L57.2,2.8L7.7,161l163.2-14.8
	L141.2,106.6"/>
<g>
	<path d="M211.9,319.6L211.9,319.6c-13.3,0-24.1-10.9-24.1-24.1V192c0-13.3,10.9-24.1,24.1-24.1h0c13.3,0,24.1,10.9,24.1,24.1v103.5
		C236,308.8,225.1,319.6,211.9,319.6z"/>
	<path d="M339.5,295.5L339.5,295.5c0,13.3-10.9,24.1-24.1,24.1H211.9c-13.3,0-24.1-10.9-24.1-24.1v0c0-13.3,10.9-24.1,24.1-24.1
		h103.5C328.6,271.4,339.5,282.2,339.5,295.5z"/>
</g>
</svg>
