<?xml version="1.0" standalone="no"?><!DOCTYPE svg PUBLIC "-//W3C//DTD SVG 1.1//EN" "http://www.w3.org/Graphics/SVG/1.1/DTD/svg11.dtd"><svg t="1574314179953" class="icon" viewBox="0 0 1024 1024" version="1.1" xmlns="http://www.w3.org/2000/svg" p-id="4387" xmlns:xlink="http://www.w3.org/1999/xlink" width="200" height="200"><defs><style type="text/css"></style></defs><path d="M512 145.44A366.56 366.56 0 1 0 878.56 512 366.56 366.56 0 0 0 512 145.44zM512 816a304 304 0 1 1 304-304 304 304 0 0 1-304 304z m0 0" p-id="4388"></path><path d="M645.76 661.44H378.24a10.24 10.24 0 0 1-10.24-10.24V384a10.4 10.4 0 0 1 10.24-10.4h267.52A10.4 10.4 0 0 1 656 384v267.2a10.24 10.24 0 0 1-10.24 10.24z m-203.52-64h139.52a10.24 10.24 0 0 0 10.24-10.24V448a10.4 10.4 0 0 0-10.24-10.4h-139.52A10.4 10.4 0 0 0 432 448v139.2a10.24 10.24 0 0 0 10.24 10.24z" p-id="4389"></path></svg>